<?xml version="1.0"?>
<svg xmlns="http://www.w3.org/2000/svg" id="Layer_1" data-name="Layer 1" viewBox="0 0 512 512" width="20px" height="20px" class="hovered-paths"><g><title class="hovered-path active-path" style="">Car service Truck</title><path d="M197.067,218.288a7,7,0,0,1-1.419,7.855l-67.726,67.726A7.833,7.833,0,0,0,139,304.946l67.726-67.727a7,7,0,0,1,7.855-1.419,35.424,35.424,0,0,0,50.069-30.952l-7.426,7.426a7,7,0,0,1-6.327,1.914l-22.129-4.438a7,7,0,0,1-5.517-5.646l-4.042-22.873a7,7,0,0,1,1.96-6.185l6.878-6.831a35.429,35.429,0,0,0-30.979,50.073Z" data-original="#000000" class="hovered-path active-path" fill="#5D4EF3"/><path d="M429.821,263a46.142,46.142,0,0,1-45.9,41H352v66h23.8a45.1,45.1,0,0,1,45.085-39.63,45.6,45.6,0,0,1,44.149,34.421C475.154,361.161,484,349.164,484,340.322v-48.37A29.029,29.029,0,0,0,454.759,263Z" data-original="#000000" class="hovered-path active-path" fill="#5D4EF3"/><path d="M80.043,257.067a8.08,8.08,0,0,0,11.411,0l36.182-36.183,9.985-18.171-11.748-11.749L107.7,200.949,71.519,237.131a8.078,8.078,0,0,0,0,11.411Z" data-original="#000000" class="hovered-path active-path" fill="#5D4EF3"/><path d="M352.831,171H455V155H374.617C364.441,155,355.794,161,352.831,171Z" data-original="#000000" class="hovered-path active-path" fill="#5D4EF3"/><path d="M87.06,330.344A46.14,46.14,0,0,1,107.074,335h42.808a45.365,45.365,0,0,1,40.038,0H306V137.007A32.24,32.24,0,0,0,273.631,105H60.167A32.067,32.067,0,0,0,28,137.007V335H67.027A46.176,46.176,0,0,1,87.06,330.344Zm157.96-173.55a7,7,0,0,1,2.7,11.608l-14.094,14,2.574,14.563,13.769,2.762,14.535-14.535a7,7,0,0,1,11.59,2.733,49.395,49.395,0,0,1-62.72,62.442L148.9,314.845a21.833,21.833,0,1,1-30.876-30.876L182.5,219.488a49.637,49.637,0,0,1,11.846-50.8A49.123,49.123,0,0,1,245.02,156.794Zm-183.4,70.438,36.888-36.888a7.021,7.021,0,0,1,1.578-1.185l15.5-8.514a7,7,0,0,1,10.147-9.626l10.97,10.97,61.681-61.681a7,7,0,0,1,9.9,9.9L146.6,191.889l10.97,10.97a6.995,6.995,0,0,1-9.626,10.146l-8.514,15.5a7.035,7.035,0,0,1-1.185,1.579l-36.887,36.887a22.093,22.093,0,0,1-31.21,0l-8.525-8.524A22.1,22.1,0,0,1,61.619,227.232Z" data-original="#000000" class="hovered-path active-path" fill="#5D4EF3"/><polygon points="423.746 185 352 185 352 249 445.278 249 423.746 185" data-original="#000000" class="hovered-path active-path" fill="#5D4EF3"/><path d="M352,290h31.919a32.377,32.377,0,0,0,31.79-27H352Z" data-original="#000000" class="hovered-path active-path" fill="#5D4EF3"/><path d="M338,349H206.677a44.441,44.441,0,0,1,8.329,21H338Z" data-original="#000000" class="hovered-path active-path" fill="#5D4EF3"/><path d="M50.327,349H28v21H41.962A43.649,43.649,0,0,1,50.327,349Z" data-original="#000000" class="hovered-path active-path" fill="#5D4EF3"/><path d="M123.787,349c1.847,2,3.426,5.209,4.708,8.026,1.286-2.83,2.859-6.026,4.693-8.026Z" data-original="#000000" class="hovered-path active-path" fill="#5D4EF3"/><path d="M420.883,344.151a31.541,31.541,0,0,0-31.5,31.5c0,.228,0,.465.006.695a31.506,31.506,0,0,0,63,.045c.006-.252.006-.5.006-.74,0-.792-.029-1.569-.084-2.309A31.6,31.6,0,0,0,420.883,344.151Z" data-original="#000000" class="hovered-path active-path" fill="#5D4EF3"/><path d="M169.88,344.154a31.062,31.062,0,0,0-15,3.8c-.012.006-.017.013-.029.02A31.5,31.5,0,0,0,138.4,375.657c0,.212-.1.43-.094.643a31.626,31.626,0,0,0,31.4,30.861c16.95,0,31.3-13.762,31.3-30.693v-.811c0-.852.179-1.616.127-2.336a31.259,31.259,0,0,0-16.289-25.351c-.008,0,.034-.009.025-.014A31.424,31.424,0,0,0,169.88,344.154Z" data-original="#000000" class="hovered-path active-path" fill="#5D4EF3"/><path d="M110.031,354.108c-.047-.047-.094-.1-.14-.144a31.2,31.2,0,0,0-7.8-5.993l-.03-.016a31.431,31.431,0,0,0-37.849,6.01c-.043.047-.088.092-.133.138l-.13.13a31.45,31.45,0,0,0-8.407,21.424c0,.224,0,.454.006.677a31.51,31.51,0,0,0,63,.056c.009-.287.008-.513.008-.733a31.41,31.41,0,0,0-8.4-21.419Z" data-original="#000000" class="hovered-path active-path" fill="#5D4EF3"/></g> </svg>
